<!-- Generated by IcoMoon.io -->
<svg version="1.1" xmlns="http://www.w3.org/2000/svg" width="1024" height="1024" viewBox="0 0 1024 1024">
<g id="icomoon-ignore">
</g>
<path fill="#3470ff" d="M256 576c0 16.974-6.743 33.252-18.745 45.255s-28.281 18.745-45.255 18.745c-16.974 0-33.252-6.743-45.255-18.745s-18.745-28.281-18.745-45.255c0-16.974 6.743-33.252 18.745-45.255s28.281-18.745 45.255-18.745c16.974 0 33.252 6.743 45.255 18.745s18.745 28.281 18.745 45.255zM896 576c0 16.974-6.746 33.252-18.746 45.255s-28.282 18.745-45.254 18.745c-16.973 0-33.254-6.743-45.254-18.745s-18.746-28.281-18.746-45.255c0-16.974 6.746-33.252 18.746-45.255s28.282-18.745 45.254-18.745c16.973 0 33.254 6.743 45.254 18.745s18.746 28.281 18.746 45.255zM384 512c-16.974 0-33.252 6.743-45.255 18.745s-18.745 28.281-18.745 45.255c0 16.974 6.743 33.252 18.745 45.255s28.281 18.745 45.255 18.745h256c16.973 0 33.254-6.743 45.254-18.745s18.746-28.281 18.746-45.255c0-16.974-6.746-33.252-18.746-45.255s-28.282-18.745-45.254-18.745h-256zM311.168 273.664l-61.184 122.496c-2.502 5.162-3.599 10.892-3.181 16.612s2.336 11.231 5.561 15.974c3.225 4.744 7.644 8.554 12.81 11.046s10.898 3.58 16.618 3.151c58.24-4.672 150.4-10.88 230.208-10.88s172.032 6.208 230.208 10.88c5.722 0.428 11.45-0.659 16.621-3.151 5.165-2.492 9.581-6.302 12.806-11.046s5.146-10.253 5.562-15.974c0.416-5.721-0.678-11.451-3.181-16.612l-61.184-122.432c-2.65-5.32-6.733-9.798-11.782-12.929-5.056-3.132-10.88-4.793-16.826-4.799h-344.448c-5.938 0-11.759 1.652-16.811 4.772s-9.137 7.583-11.797 12.892z"></path>
<path fill="#3470ff" d="M161.28 224.96c12.346-28.8 32.877-53.341 59.044-70.577s56.821-26.41 88.156-26.383h407.168c64 0 121.856 38.144 147.072 96.96l50.688 118.272c4.8 11.2 13.44 20.416 24.32 25.856 32 16 54.72 45.76 61.76 80.768l21.44 107.456c2.131 10.325 3.181 20.779 3.136 31.36v26.432c0 52.096-24.96 98.752-64 127.808v121.088c0 8.486-3.373 16.627-9.37 22.63-6.003 5.997-14.144 9.37-22.63 9.37h-128c-8.486 0-16.627-3.373-22.63-9.37-5.997-6.003-9.37-14.144-9.37-22.63v-85.632c-82.688 3.072-175.68 5.632-256 5.632s-173.312-2.56-256-5.632v85.632c0 8.486-3.372 16.627-9.373 22.63-6.001 5.997-14.14 9.37-22.627 9.37h-128c-8.487 0-16.627-3.373-22.627-9.37-6.001-6.003-9.373-14.144-9.373-22.63v-121.088c-39.040-29.056-64-75.712-64-127.808v-26.432c0.011-10.531 1.061-21.036 3.136-31.36l21.44-107.52c7.040-34.944 29.76-64.768 61.696-80.704 10.954-5.43 19.604-14.602 24.384-25.856l50.688-118.272h-0.128zM308.48 192c-18.797 0.001-37.18 5.521-52.869 15.874s-27.994 25.084-35.387 42.366l-50.688 118.208c-10.751 25.156-30.102 45.665-54.592 57.856-7.053 3.496-13.206 8.572-17.979 14.832s-8.038 13.537-9.541 21.264l-21.504 107.456c-1.258 6.193-1.901 12.496-1.92 18.816v26.432c0 50.944 39.68 92.672 90.112 94.976 99.52 4.48 242.304 9.92 357.888 9.92s258.368-5.376 357.888-9.92c24.358-1.184 47.322-11.725 64.109-29.414 16.781-17.69 26.099-41.174 26.003-65.562v-26.432c0-6.315-0.64-12.587-1.92-18.816l-21.44-107.52c-1.51-7.716-4.781-14.98-9.555-21.228s-10.918-11.314-17.965-14.804c-24.493-12.191-43.84-32.7-54.592-57.856l-50.688-118.272c-7.405-17.28-19.725-32.004-35.424-42.346-15.706-10.342-34.093-15.846-52.896-15.83h-407.040z"></path>
</svg>
